# xmcd CD database file
#
# Track frame offsets:
#	150
#	14099
#	25747
#	41844
#	51933
#	66972
#	83452
#	94617
#	109831
#	129077
#	141855
#	161677
#
# Disc length: 2332 seconds
#
# Revision: 0
# Processed by: cddbd v1.5.2PL0 Copyright (c) Steve Scherf et al.
# Submitted via: CDex 1.50beta10
#
DISCID=9a091a0c
DTITLE=Billy Dee - Welcome To My World
DYEAR=1900
DGENRE=Country
TTITLE0=Welcome To My World
TTITLE1=The Wild Side Of Life
TTITLE2=If Tomorrow Never Comes
TTITLE3=You're The Reason
TTITLE4=Imagine
TTITLE5=The Gambler
TTITLE6=On The Inside
TTITLE7=Living On Love
TTITLE8=Watermelon Wine
TTITLE9=Running Bear
TTITLE10=Carrickfergus
TTITLE11=After All These Years
EXTD=
EXTT0=
EXTT1=
EXTT2=
EXTT3=
EXTT4=
EXTT5=
EXTT6=
EXTT7=
EXTT8=
EXTT9=
EXTT10=
EXTT11=
PLAYORDER=
